<svg width="654" height="590" viewBox="0 0 654 590" fill="none" xmlns="http://www.w3.org/2000/svg">
<circle cx="318" cy="300" r="238" fill="#B3D5DE" fill-opacity="0.26"/>
<path d="M55.125 203.051C104.106 203.051 153.087 203.051 202.125 203.051C202.125 243.648 169.222 276.551 128.625 276.551C88.0277 276.551 55.125 243.648 55.125 203.051Z" fill="#B3D5DE"/>
<circle cx="128.5" cy="161.5" r="37.5" fill="white"/>
<path d="M55.125 151.486C55.125 143.849 59.891 136.958 67.0688 134.259L122.194 113.588C126.328 112.037 130.922 112.037 135.114 113.588L190.239 134.259C197.416 136.958 202.182 143.791 202.182 151.486V203.051H55.125V151.486ZM64.2551 299.347C70.2844 297.395 76.773 299.577 81.1371 304.228L121.907 347.582C125.524 351.429 131.668 351.429 135.286 347.582L176.055 304.228C180.42 299.577 186.908 297.395 192.938 299.347C230.262 311.291 257.25 346.261 257.25 387.547C257.25 397.309 249.326 405.176 239.621 405.176H17.6285C7.92422 405.176 0 397.252 0 387.547C0 346.261 26.9883 311.349 64.2551 299.347ZM119.438 138.738V147.926H110.25C107.723 147.926 105.656 149.993 105.656 152.52V161.707C105.656 164.234 107.723 166.301 110.25 166.301H119.438V175.488C119.438 178.015 121.505 180.082 124.031 180.082H133.219C135.745 180.082 137.812 178.015 137.812 175.488V166.301H147C149.527 166.301 151.594 164.234 151.594 161.707V152.52C151.594 149.993 149.527 147.926 147 147.926H137.812V138.738C137.812 136.212 135.745 134.145 133.219 134.145H124.031C121.505 134.145 119.438 136.212 119.438 138.738Z" fill="#2F879D"/>
<path d="M501.648 154.937C506.032 155.482 510.028 152.369 510.572 147.984L519.445 76.5329C519.99 72.1483 516.877 68.1525 512.492 67.608C508.108 67.0635 504.112 70.1765 503.567 74.5611L495.68 138.073L432.168 130.186C427.784 129.642 423.788 132.755 423.243 137.14C422.699 141.524 425.812 145.52 430.196 146.064L501.648 154.937ZM198.891 101.666C254.752 70.5777 307.023 65.7966 347.043 70.6183L348.957 54.7331C305.976 49.5548 250.248 54.7739 191.11 87.6853L198.891 101.666ZM347.043 70.6183C387.453 75.4869 449.568 91.9017 496.323 151.915L508.944 142.082C458.526 77.3654 391.548 59.8645 348.957 54.7331L347.043 70.6183Z" fill="#2F879D"/>
<path d="M134.27 432.942C129.9 432.288 125.827 435.3 125.173 439.669L114.512 510.875C113.858 515.245 116.87 519.318 121.24 519.972C125.609 520.626 129.682 517.614 130.336 513.245L139.812 449.95L203.107 459.426C207.476 460.081 211.549 457.069 212.203 452.699C212.857 448.33 209.845 444.257 205.476 443.603L134.27 432.942ZM435.596 493.785C378.973 523.463 326.598 526.933 286.712 521.109L284.4 536.942C327.238 543.196 383.08 539.375 443.024 507.956L435.596 493.785ZM286.712 521.109C246.436 515.229 184.753 497.263 139.517 436.097L126.653 445.611C175.434 511.57 241.952 530.744 284.4 536.942L286.712 521.109Z" fill="#2F879D"/>
<circle cx="351.662" cy="302.995" r="82.3969" fill="white"/>
<path d="M346 419C379.152 419 410.946 405.83 434.388 382.388C457.83 358.946 471 327.152 471 294C471 260.848 457.83 229.054 434.388 205.612C410.946 182.17 379.152 169 346 169C312.848 169 281.054 182.17 257.612 205.612C234.17 229.054 221 260.848 221 294C221 327.152 234.17 358.946 257.612 382.388C281.054 405.83 312.848 419 346 419ZM404.42 276.031L341.92 338.531C336.538 343.913 327.684 343.913 322.302 338.531L287.58 303.809C282.198 298.427 282.198 289.573 287.58 284.191C292.962 278.809 301.816 278.809 307.198 284.191L332.111 309.104L384.802 256.413C390.184 251.031 399.038 251.031 404.42 256.413C409.802 261.795 409.802 270.649 404.42 276.031Z" fill="#B3D5DE"/>
<circle cx="529.5" cy="360.5" r="49.5" fill="white"/>
<path d="M639.664 362.578C646.969 362.578 653.414 356.563 653.414 348.785C653.844 344.918 652.125 341.48 648.687 338.473L538.988 242.008C536.41 239.859 532.973 239 529.965 239C526.957 239 523.52 239.43 520.512 242.438L410.297 338.473C407.289 341.48 406 344.918 406 348.785C406 356.52 412.016 362.578 419.75 362.578H433.5V431.5C433.5 446.668 445.832 459 461 459H598.672C613.926 459 626.258 446.625 626.172 431.371L625.871 362.535H639.621L639.664 362.578ZM516 328.375C516 324.594 519.094 321.5 522.875 321.5H536.625C540.406 321.5 543.5 324.594 543.5 328.375V349H564.125C567.906 349 571 352.094 571 355.875V369.625C571 373.406 567.906 376.5 564.125 376.5H543.5V397.125C543.5 400.906 540.406 404 536.625 404H522.875C519.094 404 516 400.906 516 397.125V376.5H495.375C491.594 376.5 488.5 373.406 488.5 369.625V355.875C488.5 352.094 491.594 349 495.375 349H516V328.375Z" fill="#2F879D"/>
</svg>
