<svg version="1.1" id="Layer_1" xmlns="http://www.w3.org/2000/svg" x="0" y="0" viewBox="0 0 502 502" style="enable-background:new 0 0 502 502" xml:space="preserve">
<style>
.st2{opacity:.1;fill:#165172;enable-background:new}
.st3{fill:#3f92a9}
</style>
<path d="M468.5 248.1C467.2 122.4 364.8 20.8 238.8 20.8S9 123.7 9 250.6s101.5 228.5 227.3 229.8h226.9c3 0 5.4-2.4 5.4-5.4l-.1-226.9z" style="opacity:.1;fill-rule:evenodd;clip-rule:evenodd;fill:$accent-color;enable-background:new" id="Layer_1_00000150064259663102453060000013305360679024585148_"/><g id="Layer_2_00000089541891336664533760000000907580012172607903_"><circle cx="238.8" cy="237.4" r="186" style="fill:#fff"/><circle class="st2" cx="75.8" cy="372.6" r="52.6"/><path class="st3" d="M215 128.8c-3.6 3.6-3.6 9.8 0 13.4s9.8 3.6 13.4 0c4-4 10.5-4 14.5 0 1.8 1.8 4.3 2.9 6.5 2.9s4.7-1.1 6.5-2.9c3.6-3.6 3.6-9.8 0-13.4-10.8-11.5-29.3-11.5-40.9 0z"/><path class="st3" d="m111.5 275.4-2.2-2.2c-7.2-7.2-11.6-17-11.6-27.5s4-20.3 11.6-27.5l46-46c1.8-1.8 14.1 0 29.3 12.7 5.1-4 10.9-7.6 16.6-10.5-10.1-9.4-20.3-15.6-29.3-18.8l37.3-37.3c7.2-7.2 17-11.6 27.5-11.6s20.3 4 27.5 11.6l2.2 2.2c12.3 12.3 14.8 31.1 6.9 46 6.1 1.4 12.3 3.6 17.7 6.5 10.1-21.4 6.1-47.8-11.6-65.5l-2.2-2.2c-10.9-10.9-25.3-17-40.9-17-14.8-.4-29.3 5.8-40.2 16.6l-99.9 99.9c-10.9 10.9-17 25.3-17 40.9s6.1 30 17 40.9l2.2 2.2c11.2 11.2 26.1 17 40.9 17 4.3 0 8.7-.4 13-1.5-2.2-5.8-4-11.9-5.4-18.1-12.2 2.6-25.6-1-35.4-10.8z"/><path class="st3" d="M342.1 266c0-51.8-42-93.7-93.7-93.7s-94.1 42-94.1 93.7 42 93.7 93.7 93.7 94.1-41.9 94.1-93.7zm-90.9-74.9-22.1 22.1c-1.8-5.4-5.1-11.2-8.7-17 8.7-3.3 18.1-5.4 27.9-5.4.8.3 1.8.3 2.9.3zm-47.4 14.5c8 11.6 10.1 21.4 8.7 23.5-.7.7-1.5 1.5-1.8 2.5l-37.3 37.6v-2.9c-.3-24.9 12-47 30.4-60.7zm44.5 135.3c-32.6 0-60.1-20.6-70.6-49.6.7-.7 1.8-1.5 2.5-2.5l93.4-93.4c29 10.5 49.6 38 49.6 70.6.1 41.3-33.6 74.9-74.9 74.9z"/><path class="st2" d="M277.7 292.8c-7.6 8.3-18.1 13-29.3 13-10.1 0-19.5-3.6-26.8-10.5-3.6-2.9-8.7-2.9-11.6.7-2.9 3.6-2.9 8.3.4 11.6 10.5 9.4 23.9 14.8 37.6 14.8 15.9 0 30.8-6.9 41.6-18.5 2.9-3.3 2.9-8.3-.7-11.6-3.3-3.1-8.3-2.8-11.2.5z"/><path class="st3" d="m414.1 387.3-72-72c-.7-.7-1.5-1.5-2.2-1.8-2.9 5.8-6.5 11.2-10.1 16.3l71.3 71.3c2.5 2.5 2.5 6.9 0 9.4l-.7.7c-2.5 2.5-6.9 2.5-9.4 0l-71-71c-4.7 4.3-9.4 8.3-14.8 11.9l72 72c5.1 5.1 11.6 7.6 18.1 7.6s13-2.5 18.1-7.6l.7-.7c10.2-9.7 10.2-26 0-36.1zM372 35.9h80.2c22.4 0 40.5 18.1 40.5 40.5v80.2c0 22.4-18.1 40.5-40.5 40.5H372c-22.4 0-40.5-18.1-40.5-40.5V76.3c.1-22.3 18.2-40.4 40.5-40.4z"/><path d="M402.2 139.3V131c0-2.2.1-4.1.4-5.7.2-1.6.7-3 1.4-4.2.6-1.3 1.5-2.5 2.6-3.6 1.1-1.2 2.3-2.5 3.9-4.1l11.6-11.8c2.5-2.5 3.8-5.8 3.8-9.8s-1.3-7.1-3.9-9.6-5.8-3.7-9.7-3.7c-4.2 0-7.7 1.4-10.4 4.3s-4.3 6.4-4.7 10.5l-19.3-1.5c.6-4.8 1.9-9.1 3.8-12.9s4.4-7 7.5-9.6 6.6-4.6 10.6-6 8.5-2 13.3-2c4.5 0 8.7.7 12.6 2 3.9 1.3 7.2 3.2 10.1 5.7s5.1 5.5 6.7 9.2 2.4 7.9 2.4 12.6c0 3.3-.5 6.2-1.4 8.8-.9 2.5-2.1 4.8-3.6 6.9s-3.2 4.1-5.2 6-4 3.9-6.3 6c-1.4 1.3-2.6 2.5-3.6 3.5s-1.8 2-2.5 3.1-1.1 2.3-1.4 3.6-.5 3-.5 4.9v5.7h-18.2zm-3 20.9c0-3.2 1.2-6 3.5-8.3 2.4-2.3 5.2-3.5 8.5-3.5s6 1.1 8.5 3.3 3.6 4.9 3.6 8.1-1.2 6-3.5 8.3c-2.4 2.3-5.2 3.5-8.5 3.5-1.6 0-3.1-.3-4.6-.9-1.5-.6-2.7-1.4-3.9-2.4-1.1-1-2-2.2-2.6-3.6-.7-1.4-1-2.9-1-4.5z" style="fill:#eef1f6"/></g></svg>