<svg width="652" height="590" viewBox="0 0 652 590" fill="none" xmlns="http://www.w3.org/2000/svg">
<circle cx="308" cy="300" r="238" fill="#B3D5DE" fill-opacity="0.26"/>
<circle cx="527.5" cy="356.5" r="49.5" fill="white"/>
<circle cx="118.5" cy="161.5" r="37.5" fill="white"/>
<path d="M55.125 205.051C104.106 205.051 153.087 205.051 202.125 205.051C202.125 245.648 169.222 278.551 128.625 278.551C88.0277 278.551 55.125 245.648 55.125 205.051Z" fill="#B3D5DE"/>
<path d="M55.125 153.486C55.125 145.849 59.891 138.958 67.0688 136.259L122.194 115.588C126.328 114.037 130.922 114.037 135.114 115.588L190.239 136.259C197.416 138.958 202.182 145.791 202.182 153.486V205.051H55.125V153.486ZM64.2551 301.347C70.2844 299.395 76.773 301.577 81.1371 306.228L121.907 349.582C125.524 353.429 131.668 353.429 135.286 349.582L176.055 306.228C180.42 301.577 186.908 299.395 192.938 301.347C230.262 313.291 257.25 348.261 257.25 389.547C257.25 399.309 249.326 407.176 239.621 407.176H17.6285C7.92422 407.176 0 399.252 0 389.547C0 348.261 26.9883 313.349 64.2551 301.347ZM119.438 140.738V149.926H110.25C107.723 149.926 105.656 151.993 105.656 154.52V163.707C105.656 166.234 107.723 168.301 110.25 168.301H119.438V177.488C119.438 180.015 121.505 182.082 124.031 182.082H133.219C135.745 182.082 137.812 180.015 137.812 177.488V168.301H147C149.527 168.301 151.594 166.234 151.594 163.707V154.52C151.594 151.993 149.527 149.926 147 149.926H137.812V140.738C137.812 138.212 135.745 136.145 133.219 136.145H124.031C121.505 136.145 119.438 138.212 119.438 140.738Z" fill="#B3D5DE"/>
<path d="M491.648 154.937C496.032 155.482 500.028 152.369 500.572 147.984L509.445 76.5329C509.99 72.1483 506.877 68.1525 502.492 67.608C498.108 67.0635 494.112 70.1765 493.567 74.5611L485.68 138.073L422.168 130.186C417.784 129.642 413.788 132.755 413.243 137.14C412.699 141.524 415.812 145.52 420.196 146.064L491.648 154.937ZM188.891 101.666C244.752 70.5777 297.023 65.7966 337.043 70.6183L338.957 54.7331C295.976 49.5548 240.248 54.7739 181.11 87.6853L188.891 101.666ZM337.043 70.6183C377.453 75.4869 439.568 91.9017 486.323 151.915L498.944 142.082C448.526 77.3654 381.548 59.8645 338.957 54.7331L337.043 70.6183Z" fill="#B3D5DE"/>
<path d="M124.27 432.942C119.9 432.288 115.827 435.3 115.173 439.669L104.512 510.875C103.858 515.245 106.87 519.318 111.24 519.972C115.609 520.626 119.682 517.614 120.336 513.245L129.812 449.95L193.107 459.426C197.476 460.081 201.549 457.069 202.203 452.699C202.857 448.33 199.845 444.257 195.476 443.603L124.27 432.942ZM425.596 493.785C368.973 523.463 316.598 526.933 276.712 521.109L274.4 536.942C317.238 543.196 373.08 539.375 433.024 507.956L425.596 493.785ZM276.712 521.109C236.436 515.229 174.753 497.263 129.517 436.097L116.653 445.611C165.434 511.57 231.952 530.744 274.4 536.942L276.712 521.109Z" fill="#B3D5DE"/>
<circle cx="341" cy="292" r="124" fill="#2F879D"/>
<path d="M391.895 256.239C396.081 252.053 396.081 245.255 391.895 241.068C387.708 236.882 380.91 236.882 376.724 241.068L341.459 276.367L306.16 241.102C301.974 236.916 295.176 236.916 290.989 241.102C286.803 245.288 286.803 252.087 290.989 256.273L326.288 291.538L291.023 326.836C286.837 331.022 286.837 337.821 291.023 342.007C295.209 346.193 302.007 346.193 306.194 342.007L341.459 306.709L376.757 341.974C380.943 346.16 387.742 346.16 391.928 341.974C396.114 337.787 396.114 330.989 391.928 326.803L356.63 291.538L391.895 256.239Z" fill="white"/>
<path d="M637.664 367.578C644.969 367.578 651.414 361.563 651.414 353.785C651.844 349.918 650.125 346.48 646.687 343.473L536.988 247.008C534.41 244.859 530.973 244 527.965 244C524.957 244 521.52 244.43 518.512 247.438L408.297 343.473C405.289 346.48 404 349.918 404 353.785C404 361.52 410.016 367.578 417.75 367.578H431.5V436.5C431.5 451.668 443.832 464 459 464H596.672C611.926 464 624.258 451.625 624.172 436.371L623.871 367.535H637.621L637.664 367.578ZM514 333.375C514 329.594 517.094 326.5 520.875 326.5H534.625C538.406 326.5 541.5 329.594 541.5 333.375V354H562.125C565.906 354 569 357.094 569 360.875V374.625C569 378.406 565.906 381.5 562.125 381.5H541.5V402.125C541.5 405.906 538.406 409 534.625 409H520.875C517.094 409 514 405.906 514 402.125V381.5H493.375C489.594 381.5 486.5 378.406 486.5 374.625V360.875C486.5 357.094 489.594 354 493.375 354H514V333.375Z" fill="#B3D5DE"/>
</svg>
