<svg version="1.1" id="Layer_1" xmlns="http://www.w3.org/2000/svg" x="0" y="0" viewBox="0 0 529 520" style="enable-background:new 0 0 529 520" xml:space="preserve">
    <style>
        .st3{fill:#a8b1bd}
    </style>
    <g id="Layer_1_00000028320838830023681680000001842504767437265804_">
        <path d="M496 257.5C494.7 131.7 392.3 30.2 266.3 30.2S36.5 133.1 36.5 260 138 488.5 263.8 489.8h226.9c3 0 5.4-2.4 5.4-5.4l-.1-226.9z" style="opacity:.1;fill-rule:evenodd;clip-rule:evenodd;fill:#49bbeb;enable-background:new"/>
        <circle cx="403.5" cy="165" r="104.6" style="opacity:.1;fill:#49bbeb;enable-background:new"/>
        <path d="M372.3 86.6c-4.4-4.4-10.5-6.9-16.8-6.9H87c-6.3 0-12.3 2.5-16.8 6.9s-6.9 10.5-6.9 16.8v221.2c0 6.3 2.5 12.3 6.9 16.8 4.4 4.4 10.5 6.9 16.8 7h23.7v39.5c0 1.9.7 3.8 1.9 5.2s3 2.4 4.9 2.6c1.9.2 3.8-.2 5.4-1.3l69.1-46.1h163.5c6.3 0 12.3-2.5 16.8-7s6.9-10.5 7-16.8V103.4c0-6.3-2.5-12.4-7-16.8z" style="fill:#eef1f6"/>
    </g>
    <g id="Layer_2_00000166672198813276581490000004713021090133007032_">
        <path class="st3" d="M442.5 182.3v205.4c0 6.3-2.5 12.3-7 16.8s-10.5 6.9-16.8 7H395V451c0 1.9-.7 3.8-2 5.2-1.3 1.4-3 2.4-4.9 2.6s-3.8-.2-5.4-1.3l-69.1-46.1H213.4c-6.3 0-12.3-2.5-16.8-7-4.4-4.4-6.9-10.5-6.9-16.8V364h15.8v23.7c0 2.1.8 4.1 2.3 5.6 1.5 1.5 3.5 2.3 5.6 2.3h102.7c1.6 0 3.1.5 4.4 1.3l58.8 39.2v-32.6c0-2.1.8-4.1 2.3-5.6s3.5-2.3 5.6-2.3h31.6c2.1 0 4.1-.8 5.6-2.3 1.5-1.5 2.3-3.5 2.3-5.6V182.3c0-2.1-.8-4.1-2.3-5.6s-3.5-2.3-5.6-2.3h-23.7v-15.8h23.7c6.3 0 12.3 2.5 16.8 6.9s6.8 10.6 6.9 16.8zM63.3 324.5V103.4c0-6.3 2.5-12.3 6.9-16.8 4.4-4.4 10.5-6.9 16.8-6.9h268.6c6.3 0 12.3 2.5 16.8 6.9s6.9 10.5 7 16.8v221.2c0 6.3-2.5 12.3-7 16.8-4.4 4.4-10.5 6.9-16.8 7H192.1L123 394.3c-1.6 1.1-3.5 1.5-5.4 1.3s-3.6-1.2-4.9-2.6c-1.3-1.4-2-3.3-1.9-5.2v-39.5H87c-6.3 0-12.3-2.5-16.8-7s-6.9-10.5-6.9-16.8zm15.8 0c0 2.1.8 4.1 2.3 5.6 1.5 1.5 3.5 2.3 5.6 2.3h31.6c2.1 0 4.1.8 5.6 2.3s2.3 3.5 2.3 5.6v32.6l58.8-39.2c1.3-.9 2.8-1.3 4.4-1.3h165.9c2.1 0 4.1-.8 5.6-2.3 1.5-1.5 2.3-3.5 2.3-5.6V103.3c0-2.1-.8-4.1-2.3-5.6s-3.5-2.3-5.6-2.3H87c-2.1 0-4.1.8-5.6 2.3-1.5 1.5-2.3 3.5-2.3 5.6v221.2zm86.9-63.2h55.3v-15.8H166v15.8zm-15.8-15.8h-47.4v15.8h47.4v-15.8zm31.6 39.5h-79v15.8h79V285zm23.7-79H102.8v15.8h102.7V206zm-47.4-23.7h63.2v-15.8h-63.2v15.8zm-15.8-15.8h-39.5v15.8h39.5v-15.8zm79-39.5h-39.5v15.8h39.5V127zm-55.3 0h-63.2v15.8H166V127z"/>
        <path class="st3" d="M281.4 231.3v-11.1c0-3 .2-5.5.5-7.6.3-2.1.9-4 1.8-5.6.9-1.7 2-3.3 3.4-4.8s3.1-3.4 5.1-5.5l15.5-15.7c3.4-3.4 5-7.7 5-13.1s-1.7-9.5-5.1-12.8c-3.4-3.3-7.8-4.9-13-4.9-5.6 0-10.3 1.9-13.9 5.8s-5.7 8.5-6.2 14l-25.8-2c.8-6.4 2.5-12.2 5-17.2s5.9-9.3 10-12.8 8.8-6.1 14.2-8c5.4-1.8 11.3-2.7 17.7-2.7 6 0 11.7.9 16.8 2.6 5.2 1.8 9.7 4.3 13.5 7.6s6.8 7.4 9 12.3 3.2 10.5 3.2 16.8c0 4.4-.6 8.3-1.8 11.7-1.2 3.4-2.8 6.4-4.8 9.3s-4.3 5.5-7 8.1c-2.6 2.5-5.4 5.2-8.4 8.1-1.9 1.8-3.5 3.3-4.8 4.6-1.3 1.3-2.5 2.7-3.3 4.1-.9 1.4-1.5 3-1.9 4.8s-.6 4-.6 6.5v7.7l-24.1-.2zm-4.1 28c0-4.3 1.6-8 4.7-11.1 3.2-3.1 7-4.6 11.4-4.6s8.1 1.5 11.3 4.4c3.2 3 4.8 6.6 4.8 10.9s-1.6 8-4.7 11.1-7 4.6-11.4 4.6c-2.1 0-4.2-.4-6.1-1.2-2-.8-3.7-1.9-5.1-3.2-1.5-1.3-2.7-3-3.5-4.8-.9-2-1.4-4-1.4-6.1z"/>
    </g>
</svg>
