<svg version="1.1" id="Layer_1" xmlns="http://www.w3.org/2000/svg" x="0" y="0" viewBox="0 0 560 560" style="enable-background:new 0 0 560 560" xml:space="preserve">
    <style>
        .st1{opacity:.1;fill:#49bbeb;enable-background:new}.st3{fill:#fff}.st5{fill:#a8b1bd}
    </style>
    <g id="Layer_1_00000150788010503782023390000010182987428372932999_">
        <path d="M511.5 264.5C510.2 138.7 407.8 37.2 281.8 37.2S52 140.1 52 267s101.5 228.5 227.3 229.8h226.9c3 0 5.4-2.4 5.4-5.4l-.1-226.9z" style="opacity:.1;fill-rule:evenodd;clip-rule:evenodd;fill:#49bbeb;enable-background:new"/>
        <circle class="st1" cx="406.3" cy="427.2" r="104.6"/>
        <circle class="st1" cx="114.1" cy="149.2" r="104.6"/>
    </g>
    <path style="fill:#eef1f6" d="M40 100.1h490.1v330H40z" id="Layer_3"/>
    <g id="Layer_2_00000023982640081051545660000017182892104168283061_">
        <path class="st3" d="M84.6 132.2c0 5.1-4.1 9.3-9.3 9.3s-9.3-4.1-9.3-9.3 4.1-9.3 9.3-9.3 9.3 4.2 9.3 9.3M108.6 132.2c0 5.1-4.1 9.3-9.3 9.3s-9.3-4.1-9.3-9.3 4.1-9.3 9.3-9.3 9.3 4.2 9.3 9.3M132.6 132.2c0 5.1-4.1 9.3-9.3 9.3s-9.3-4.1-9.3-9.3 4.1-9.3 9.3-9.3 9.3 4.2 9.3 9.3"/>
        <path d="m448.9 430.6-7.6-10.4-18-25 42.5-24.5-132.3-61L352 453.5l37-33.2 7.1 10.4 27.2 37.6 34.3-25-8.7-12.7z" style="fill:#6b787c"/>
        <path class="st5" d="M40 100.1v330.5h295.7l-1.6-15.2H54.7V163.8h460.1v251.6h-61l10.9 14.7H530v-330H40zm475.4 49H54.7v-33.8h460.1v33.8h.6z"/>
        <path class="st5" d="M174.7 191.9c-35.6 0-64.9 28.9-64.9 64.9 0 72 59.7 122.2 62.1 124.2.8.8 1.6.8 2.4.8s2-.4 2.4-.8c2.4-2 62.1-52.2 62.1-124.2.8-36-28.5-64.9-64.1-64.9zm0 109.2c-24.5 0-44.3-19.8-44.3-44.3s19.8-44.3 44.3-44.3 44.3 19.8 44.3 44.3-19.8 44.3-44.3 44.3z"/>
        <path class="st5" d="M194.9 252.8h-16.2v-16.2c0-2.4-1.6-4-4-4s-4 1.6-4 4v16.2h-16.2c-2.4 0-4 1.6-4 4s1.6 4 4 4h16.2V277c0 2.4 1.6 4 4 4s4-1.6 4-4v-16.2h16.2c2.4 0 4-1.6 4-4s-2.1-4-4-4zM339.1 185.8c-17.5 0-31.8 14.2-31.8 31.8 0 35.3 29.3 60 30.5 61 .4.4.8.4 1.2.4s1-.2 1.2-.4c1.2-1 30.5-25.6 30.5-61 .2-17.6-14.2-31.8-31.6-31.8zm0 53.6c-12 0-21.7-9.7-21.7-21.7s9.7-21.7 21.7-21.7 21.7 9.7 21.7 21.7-9.7 21.7-21.7 21.7z"/>
        <path class="st5" d="M349 215.7h-8v-8c0-1.2-.8-1.9-1.9-1.9s-1.9.8-1.9 1.9v8h-8c-1.2 0-1.9.8-1.9 1.9s.8 1.9 1.9 1.9h8v8c0 1.2.8 1.9 1.9 1.9s1.9-.8 1.9-1.9v-8h8c1.2 0 1.9-.8 1.9-1.9s-1-1.9-1.9-1.9zM441.4 227.6c-14.8 0-26.9 12-26.9 26.9 0 29.9 24.8 50.7 25.8 51.5.3.3.7.3 1 .3s.8-.2 1-.3c1-.8 25.8-21.7 25.8-51.5.2-14.9-11.9-26.9-26.7-26.9zm0 45.3c-10.2 0-18.4-8.2-18.4-18.4s8.2-18.4 18.4-18.4 18.4 8.2 18.4 18.4-8.2 18.4-18.4 18.4z"/>
        <path class="st5" d="M449.8 252.9H443v-6.7c0-1-.7-1.6-1.6-1.6s-1.6.7-1.6 1.6v6.7H433c-1 0-1.6.7-1.6 1.6s.7 1.6 1.6 1.6h6.7v6.7c0 1 .7 1.6 1.6 1.6s1.6-.7 1.6-1.6v-6.7h6.7c1 0 1.6-.7 1.6-1.6s-.6-1.6-1.4-1.6z"/>
    </g>
</svg>
