<svg version="1.1" id="Layer_1" xmlns="http://www.w3.org/2000/svg" x="0" y="0" viewBox="0 0 580 580" style="enable-background:new 0 0 580 580" xml:space="preserve">
    <style>
        .st2{fill:#eef1f6}.st3{fill:#a8b1bd}.st4{fill:#6b787c}
    </style>
    <g id="Layer_1_00000137853020198926331070000010321182085045287602_">
        <path d="M570 279.7C568.5 131.1 447.6 11 298.6 11S27.1 132.6 27.1 282.5s120 270 268.7 271.4H564.7c3 0 5.4-2.4 5.4-5.4l-.1-268.8z" style="opacity:.1;fill-rule:evenodd;clip-rule:evenodd;fill:#49bbeb;enable-background:new"/>
        <circle cx="121.1" cy="403.2" r="115.6" style="opacity:.18;fill:#49bbeb;enable-background:new"/>
    </g>
    <path class="st2" d="M535.9 395.2h-29.2V167.3c0-16.1-13.1-29.2-29.2-29.2H115.3c-16.1 0-29.2 13.1-29.2 29.2v227.8H55.7c-2.8.5-4.8 3-4.8 5.8v23.4c0 16.1 13.1 29.2 29.2 29.2h432.3c16.1 0 29.2-13.1 29.2-29.2V401c.1-3.2-2.5-5.8-5.7-5.8z" id="Layer_3"/>
    <g id="Layer_2_00000050643633541444343300000002420523720463985282_">
        <path class="st3" d="M179.6 230.6c0-11.1-9-20.3-20.3-20.3s-20.1 9.2-20.1 20.3c0 9.4 6.3 17 14.9 19.4v20.5c-8.6 2.5-14.9 10.1-14.9 19.5s6.3 17 14.9 19.4v20.5c-8.6 2.5-14.9 10.1-14.9 19.5 0 11.1 9 20.3 20.3 20.3s20.1-9.2 20.1-20.3c0-9.4-6.3-17-14.9-19.4v-20.7c8.6-2.3 14.9-10.1 14.9-19.4s-6.3-17-14.9-19.4V250c8.6-2.3 14.9-10 14.9-19.4zm-29.8 0c0-5.4 4.4-9.6 9.6-9.6s9.6 4.4 9.6 9.6-4.4 9.6-9.6 9.6-9.6-4.2-9.6-9.6zm19.3 118.8c0 5.4-4.4 9.6-9.6 9.6s-9.6-4.4-9.6-9.6 4.4-9.6 9.6-9.6 9.6 4.2 9.6 9.6zm0-59.4c0 5.4-4.4 9.6-9.6 9.6s-9.6-4.4-9.6-9.6 4.4-9.6 9.6-9.6 9.6 4.2 9.6 9.6zM200.7 295.4h30.6c2.9 0 5.4-2.3 5.4-5.4s-2.3-5.4-5.4-5.4h-30.6c-2.9 0-5.4 2.3-5.4 5.4s2.5 5.4 5.4 5.4z"/>
        <path class="st4" d="M253 295.4h30.6c2.9 0 5.4-2.3 5.4-5.4s-2.3-5.4-5.4-5.4H253c-2.9 0-5.4 2.3-5.4 5.4s2.5 5.4 5.4 5.4z"/>
        <path class="st3" d="M306.4 295.4H337c2.9 0 5.4-2.3 5.4-5.4s-2.3-5.4-5.4-5.4h-30.6c-2.9 0-5.4 2.3-5.4 5.4s2.5 5.4 5.4 5.4z"/>
        <path class="st4" d="M200.7 239h30.6c2.9 0 5.4-2.3 5.4-5.4s-2.3-5.4-5.4-5.4h-30.6c-2.9 0-5.4 2.3-5.4 5.4s2.5 5.4 5.4 5.4z"/>
        <path class="st3" d="M253 239h30.6c2.9 0 5.4-2.3 5.4-5.4s-2.3-5.4-5.4-5.4H253c-2.9 0-5.4 2.3-5.4 5.4s2.5 5.4 5.4 5.4z"/>
        <path class="st4" d="M200.7 359h30.6c2.9 0 5.4-2.3 5.4-5.4s-2.3-5.4-5.4-5.4h-30.6c-2.9 0-5.4 2.3-5.4 5.4s2.5 5.4 5.4 5.4z"/>
        <path class="st3" d="M253 359h30.6c2.9 0 5.4-2.3 5.4-5.4s-2.3-5.4-5.4-5.4H253c-2.9 0-5.4 2.3-5.4 5.4s2.5 5.4 5.4 5.4z"/>
        <path class="st4" d="M535.9 395.2h-27l4.9 2.2-16.3 9.4H530v17.5c0 9.8-7.7 17.5-17.5 17.5h-30.7l3.3 4.5 5 7.2h22.4c16.1 0 29.2-13.1 29.2-29.2V401c0-3.2-2.6-5.8-5.8-5.8zM376 441.9H80.2c-9.8 0-17.5-7.7-17.5-17.5v-17.5H238v17.5c0 3.2 2.6 5.8 5.8 5.8h105.1c3.2 0 5.8-2.6 5.8-5.8v-17.5h16.8l-1.5-11.7H97.7V184.8H495v203.9l11.7 5.4V167.3c0-16.1-13.1-29.2-29.2-29.2H115.3c-16.1 0-29.2 13.1-29.2 29.2v227.8H55.7c-2.8.5-4.8 3-4.8 5.8v23.4c0 16.1 13.1 29.2 29.2 29.2h297.3l-1.4-11.6zm-126.4-35.1h93.5v11.7h-93.5v-11.7zM97.7 167.3c0-9.8 7.7-17.5 17.5-17.5h362.2c9.8 0 17.5 7.7 17.5 17.5v5.8H97.7v-5.8z"/>
        <path class="st3" d="m476.9 452.1-6.8-9.3-16.1-22.4 38-22-118.5-54.6 16.6 128.8 33.2-29.8 6.3 9.3 24.4 33.6 30.7-22.4-7.8-11.2z"/>
        <circle class="st3" cx="448.8" cy="181.8" r="105.7"/>
        <path class="st2" d="M415.7 144.7c.3.3.9.3 1.2.6h1.8c1.8 19.1 14.8 33.6 30.3 33.6 14.2 0 26.6-12.1 29.7-29.1.6 0 1.5 0 2.1-.3 1.2-.3 2.1-1.2 2.4-2.4 1.5-7.3.6-14.2-2.7-20.6-5.8-13-18.2-21.2-31.5-21.2h-.9c-9.7.3-18.5 4.2-24.8 11.2s-9.7 16.1-9.1 25.7c0 1 .6 1.9 1.5 2.5zm33.6 27.8c-13 0-23.6-13.3-24.5-30v-.3c1.5-1.2 2.7-2.7 4.2-4.2.9-.9 1.5-1.8 2.7-2.7 4.5-4.5 12.4-5.1 17.6-1.2.6.3.9.9 1.5 1.2 7 7 15.1 11.8 22.7 13.6-3.3 13.9-13 23.6-24.2 23.6zm-21.5-51.8c5.5-5.8 12.7-9.1 20.6-9.4h.6c10.9 0 21.2 7 26.3 17.3 2.1 4.8 3 9.7 2.4 14.8-7 0-16-4.8-23.3-12.4-.6-.6-1.2-1.2-2.1-1.8-3.3-2.7-7.3-3.9-11.8-3.9-5.1 0-10 2.1-13.9 5.8-.9.9-1.8 1.8-2.7 3-1.2 1.5-2.4 3-3.9 3.9.8-6.7 3.6-12.4 7.8-17.3zM449 186.4c-27 0-49 27.6-49 61.2 0 1.8 1.2 3 3 3h91.7c1.8 0 3-1.2 3-3 .3-33.6-21.8-61.2-48.7-61.2zm13.3 8.8L449 219.4l-13.3-24.2c4.2-1.8 8.8-2.7 13.3-2.7s9.1.9 13.3 2.7zm-56 49.4c.9-20.6 10.6-38.1 24.2-46.6l16 29.4c.6.9 1.5 1.5 2.7 1.5s2.1-.6 2.7-1.5l16-29.4c13.6 8.5 23.3 26 24.2 46.6h-85.8z"/>
        <path class="st2" d="M459.9 149.2h-2.4c-1.8 0-3 1.2-3 3s1.2 3 3 3h2.4c1.8 0 3-1.2 3-3s-1.5-3-3-3zM440.5 149.2h-2.4c-1.8 0-3 1.2-3 3s1.2 3 3 3h2.4c1.8 0 3-1.2 3-3s-1.2-3-3-3z"/>
    </g>
</svg>
