<svg version="1.1" id="Layer_1" xmlns="http://www.w3.org/2000/svg" x="0" y="0" viewBox="0 0 570 570" style="enable-background:new 0 0 570 570" xml:space="preserve">
    <style>
        .st1{opacity:.1;fill:#49bbeb;enable-background:new}.st3{fill:#a8b1bd}.st6{fill:#49bbeb}.st7{fill:#6b787c}
    </style>
    <g id="Layer_1_00000078029641532586155490000004817979436613993400_">
        <path d="M279 556.4C130.4 555 10.3 434 10.3 285S131.9 13.5 281.8 13.5s269.9 120 271.4 268.7V551c0 3-2.4 5.4-5.4 5.4H279z" style="opacity:.1;fill-rule:evenodd;clip-rule:evenodd;fill:#49bbeb;enable-background:new"/>
        <circle class="st1" cx="131.6" cy="133.2" r="92.5"/>
    </g>
    <path d="M435 125.2H143.4c-16 0-29.1 13.1-29.1 29.1v241.2c0 16 13.1 29.1 29.1 29.1h90.4v37.2H212c-4.4 0-7.3 2.9-7.3 7.3s2.9 7.3 7.3 7.3h154.5c4.4 0 7.3-2.9 7.3-7.3s-2.9-7.3-7.3-7.3h-21.9v-37.2H435c16 0 29.1-13.1 29.1-29.1V154.4c0-16.1-13.1-29.2-29.1-29.2z" style="fill:#eef1f6" id="Layer_3"/>
    <g id="Layer_2_00000121246119117591721040000016033259381626628281_">
        <path class="st3" d="M219.7 165.8h-47.9c-3.2 0-5.7 2.6-5.7 5.7 0 3.2 2.6 5.7 5.7 5.7h47.9c3.2 0 5.7-2.6 5.7-5.7 0-3.2-2.5-5.7-5.7-5.7zM314 165.8h-47.9c-3.2 0-5.7 2.6-5.7 5.7 0 3.2 2.6 5.7 5.7 5.7H314c3.2 0 5.7-2.6 5.7-5.7 0-3.2-2.5-5.7-5.7-5.7zM408.4 165.8h-47.9c-3.2 0-5.7 2.6-5.7 5.7 0 3.2 2.6 5.7 5.7 5.7h47.9c3.2 0 5.7-2.6 5.7-5.7 0-3.2-2.6-5.7-5.7-5.7z"/>
        <path d="M168.6 187.1h243.8c.9 0 1.7.8 1.7 1.7V330c0 .9-.8 1.7-1.7 1.7H168.6c-.9 0-1.7-.8-1.7-1.7V188.8c0-1 .8-1.7 1.7-1.7z" style="opacity:.47;fill:#a8b1bd;enable-background:new"/>
        <g style="opacity:.49">
            <path class="st6" d="M207.2 218.6H271v113.1h-63.8zM310 257.6h63.8v74.1H310z"/>
        </g>
        <path class="st7" d="M366.5 461.9h-21.9v-37.2h27.6c-1-4.7-1.6-9.6-1.8-14.6h-227c-8 0-14.6-6.6-14.6-14.6v-27h251.9c3-5.3 6.6-10.2 10.7-14.6H128.9V154.4c0-8 6.6-14.6 14.6-14.6H435c8 0 14.6 6.6 14.6 14.6v174.4c5 0 9.9.5 14.6 1.4V154.4c0-16-13.1-29.1-29.1-29.1H143.4c-16 0-29.1 13.1-29.1 29.1v241.2c0 16 13.1 29.1 29.1 29.1h90.4v37.2H212c-4.4 0-7.3 2.9-7.3 7.3s2.9 7.3 7.3 7.3h154.5c4.4 0 7.3-2.9 7.3-7.3s-3-7.3-7.3-7.3zm-36.5 0h-81.6v-36.4H330v36.4z"/>
        <circle class="st1" cx="449.5" cy="407.9" r="79.2"/>
        <path class="st7" d="m522.1 466.2-29.5-29.5c5-8 7.9-17.4 7.9-27.5 0-28.6-23.2-51.8-51.8-51.8s-51.8 23.2-51.8 51.8 23.2 51.8 51.8 51.8c11 0 21.2-3.4 29.6-9.3l29.1 29.1c2 2 4.7 3 7.3 3s5.3-1 7.3-3c4.2-4 4.2-10.5.1-14.6zm-73.3-21.9c-19.3 0-35-15.7-35-35s15.7-35 35-35 35 15.7 35 35-15.7 35-35 35z"/>
    </g>
</svg>
