<svg version="1.1" id="Layer_1" xmlns="http://www.w3.org/2000/svg" x="0" y="0" viewBox="0 0 520 520" style="enable-background:new 0 0 520 520" xml:space="preserve">
    <style>
        .st2{fill:#eef1f6}.st5{fill:#6b787c}
    </style>
    <path d="M283.9 18.7C409.6 20 511.2 122.4 511.2 248.5S408.3 478.3 281.4 478.3 52.9 376.7 51.6 251V24.1c0-3 2.4-5.4 5.4-5.4h226.9z" style="opacity:.1;fill-rule:evenodd;clip-rule:evenodd;fill:#49bbeb;enable-background:new" id="Layer_1_00000142878812270592887230000012010088758394542750_"/>
    <g id="Layer_3">
        <circle cx="376.6" cy="392.3" r="112.9" style="fill:#a8b1bd"/>
        <path class="st2" d="M411.9 361.3c0-1.7 0-3.4-.3-5.1-.3-.9-.9-1.7-1.7-2s-1.7-.3-2.6 0c-1.4.9-2.9 1.1-4.9 1.1-5.7 0-12.8-3.4-18.2-9.1-.9-.9-1.7-1.7-2.3-2.6-.6-.6-1.4-1.1-2.3-1.1s-1.7.3-2.3 1.1c-.9.9-1.4 1.7-2.3 2.6-5.7 5.7-12.5 9.1-18.2 9.1-2 0-3.4-.3-4.9-1.1-.9-.6-1.7-.6-2.6 0-.9.3-1.4 1.1-1.7 2-.3 1.7-.3 3.4-.3 5.1 0 17.7 14.5 32.2 32.2 32.2s32.4-14.3 32.4-32.2zm-32.2 26.5c-14.5 0-26.5-12-26.5-26.5v-.9c1.1.3 2.3.3 3.7.3 7.1 0 15.7-4 22.2-10.8.3.3.3 0 .6-.3l.6.6c6.8 6.8 15.1 10.8 22.2 10.8 1.4 0 2.6 0 3.7-.3v.9c0 14.5-12 26.2-26.5 26.2z"/>
        <path class="st2" d="M414.7 412.3c5.7-2.3 10-7.7 10.8-14.2 7.1-2.3 12.3-9.1 12.3-16.8 0-11.4-8.3-16.2-14.2-17.4-1.4-22.2-20.5-39.9-43.9-39.9s-42.5 17.7-43.9 39.9c-6 1.1-14.2 6-14.2 17.4 0 7.7 4.9 14.2 12.3 16.8.9 6.6 4.9 12 10.8 14.2-13.7 10.5-22.5 27.1-22.5 45.6 0 1.7 1.1 2.8 2.9 2.8h109.7c1.7 0 2.8-1.1 2.8-2.8-.4-18.5-9.2-35.1-22.9-45.6zm-75.2-16v-.6c0-1.4-.9-2.6-2.3-2.9-5.7-1.1-9.7-6-9.7-11.7 0-11.1 10.3-12 11.4-12.3 1.4 0 2.6-1.4 2.6-2.9 0-20 17.1-36.5 38.2-36.5s38.2 16.5 38.2 36.8c0 1.4 1.1 2.9 2.6 2.9 1.1 0 11.4 1.1 11.4 12.3 0 5.7-4 10.5-9.7 11.7-1.4.3-2.3 1.4-2.3 2.9v.3c0 6.3-5.1 11.7-11.7 11.7-8.5-4.9-18.2-7.7-28.8-7.7s-20.2 2.9-28.8 7.7c-6-.3-11.1-5.4-11.1-11.7zm54.1 11.4c-1.1 6.6-7.1 17.1-14 17.1s-12.8-10.5-14-17.1c4.6-1.1 9.1-2 14-2s9.5.9 14 2zM327.8 455c1.1-20.5 14.2-37.9 32.5-45.3 1.7 8.8 9.4 20.8 19.4 20.8s17.4-12.3 19.4-20.8c18.2 7.4 31.4 24.8 32.5 45.3H327.8z"/>
        <path class="st2" d="M393.9 363h-2.6c-1.7 0-2.9 1.1-2.9 2.9s1.1 2.9 2.9 2.9h2.6c1.7 0 2.9-1.1 2.9-2.9 0-1.5-1.2-2.9-2.9-2.9zM368 363h-2.6c-1.7 0-2.9 1.1-2.9 2.9s1.1 2.9 2.9 2.9h2.6c1.7 0 2.9-1.1 2.9-2.9-.1-1.5-1.5-2.9-2.9-2.9zM318.1 100.3c3.9 0 6.5-2.6 6.5-6.5v-39c0-3.9-2.6-6.5-6.5-6.5h-299c-3.9 0-6.5 2.6-6.5 6.5v39c0 3.9 2.6 6.5 6.5 6.5h32.5v14.3H19.2c-3.9 0-6.5 2.6-6.5 6.5v232.7c0 3.9 2.6 6.5 6.5 6.5h299c3.9 0 6.5-2.6 6.5-6.5V121.1c0-3.9-2.6-6.5-6.5-6.5h-32.5v-14.3h32.4z"/>
    </g>
    <g id="Layer_2_00000047764361022986949340000004542032594432628117_">
        <circle cx="393.6" cy="227.7" r="76.4" style="opacity:.35;fill:#49bbeb;enable-background:new"/>
        <path d="M395.6 259.8c-2.3 3.1-5.8 5-9.7 5.2-3.8.2-7.5-1.4-10.1-4.2l-23-25.6c-3.7-4.1-3.3-10.3.7-14s10.3-3.3 14 .7l16.3 18.1c.2.3.6.4 1 .4s.7-.2.9-.5l33.5-45.4c3.2-4.4 9.4-5.3 13.8-2.1 4.4 3.2 5.3 9.4 2.1 13.8l-39.5 53.6z" style="fill:#fff"/>
        <path class="st5" d="M318.1 100.3c3.9 0 6.5-2.6 6.5-6.5v-39c0-3.9-2.6-6.5-6.5-6.5h-299c-3.9 0-6.5 2.6-6.5 6.5v39c0 3.9 2.6 6.5 6.5 6.5h32.5v14.3H19.2c-3.9 0-6.5 2.6-6.5 6.5v232.7c0 3.9 2.6 6.5 6.5 6.5h299c3.9 0 6.5-2.6 6.5-6.5V121.1c0-3.9-2.6-6.5-6.5-6.5h-32.5v-14.3h32.4zm-6.5 27.3v219.7h-286V127.6h26s-1.9 9.1 6.5 9.8h32.5c5.2 0 6.5-4.6 6.5-6.5v-3.2h143s-2 8.4 6.5 9.8h32.5c8.5-1.3 6.5-9.8 6.5-9.8h26zm-246.9-3.2V88h19.5v36.4H64.7zm32.5-9.8v-14.3h143v14.3h-143zm156 9.8V88h19.5v36.4h-19.5zm26-49.4h-32.5c-3.9 0-6.5 2.6-6.5 6.5v5.9h-143v-5.9c0-3.9-2.6-6.5-6.5-6.5H58.2c-9.1-.6-6.5 12.4-6.5 12.4h-26v-26h286v26h-26v-5.9c0-3.9-2.6-6.5-6.5-6.5z"/>
        <path class="st5" d="M241.5 212.8h-48.1v-48.1c0-3.9-2.6-6.5-6.5-6.5h-35.7c-3.9 0-6.5 2.6-6.5 6.5v48.1H96.5c-3.9 0-6.5 2.6-6.5 6.5V255c0 3.9 2.6 6.5 6.5 6.5h48.1v48.1c0 3.9 2.6 6.5 6.5 6.5h35.7c3.9 0 6.5-2.6 6.5-6.5v-48.1h48.1c3.9 0 6.5-2.6 6.5-6.5v-35.7c.1-3.3-3.2-6.5-6.4-6.5zm-6.5 35.7h-48.1c-3.9 0-6.5 2.6-6.5 6.5v48.1h-22.8V255c0-3.9-2.6-6.5-6.5-6.5H103v-22.8h48.1c3.9 0 6.5-2.6 6.5-6.5v-48.1h22.8v48.1c0 3.9 2.6 6.5 6.5 6.5H235v22.8z"/>
    </g>
</svg>
