<svg version="1.1" id="Layer_1" xmlns="http://www.w3.org/2000/svg" x="0" y="0" viewBox="0 0 520 520" style="enable-background:new 0 0 520 520" xml:space="preserve">
    <style>
        .st3{fill:#6b787c}.st4{fill:#a8b1bd}
    </style>
    <g id="Layer_1_00000083069340881785780060000012257992767096364702_">
        <path d="M275.2 489.8C401 488.4 502.5 386.1 502.5 260S399.7 30.2 272.8 30.2 44.3 131.8 43 257.5v226.9c0 3 2.4 5.4 5.4 5.4h226.8z" style="opacity:.1;fill-rule:evenodd;clip-rule:evenodd;fill:#49bbeb;enable-background:new"/>
        <circle cx="396.5" cy="393.7" r="113.4" style="opacity:.1;fill:#49bbeb;enable-background:new"/>
    </g>
    <g id="Layer_2_00000038383375183441177220000017620747142998319018_">
        <path d="M69.6 16.3h284c34.4 0 62.4 27.9 62.4 62.4v284c0 34.4-27.9 62.4-62.4 62.4h-284c-34.4 0-62.4-27.9-62.4-62.4v-284c0-34.5 28-62.4 62.4-62.4z" style="fill:#eef1f6"/>
        <path class="st3" d="M125.9 114.5c0-19.9-16.1-36.3-36.3-36.3s-35.9 16.4-35.9 36.3c0 16.8 11.3 30.5 26.7 34.6v36.6c-15.4 4.4-26.7 18.1-26.7 34.9s11.3 30.5 26.7 34.6v36.6c-15.4 4.5-26.7 18.1-26.7 34.9 0 19.9 16.1 36.3 36.3 36.3s35.9-16.4 35.9-36.3c0-16.8-11.3-30.5-26.7-34.6v-37c15.4-4.1 26.7-18.1 26.7-34.6s-11.3-30.5-26.7-34.6v-37c15.4-3.9 26.7-17.6 26.7-34.4zm-53.4 0c0-9.6 7.9-17.1 17.1-17.1s17.1 7.9 17.1 17.1-7.9 17.1-17.1 17.1-17.1-7.5-17.1-17.1zM107 326.7c0 9.6-7.9 17.1-17.1 17.1s-17.1-7.9-17.1-17.1 7.9-17.1 17.1-17.1 17.1 7.5 17.1 17.1zm0-106.1c0 9.6-7.9 17.1-17.1 17.1s-17.1-7.9-17.1-17.1 7.9-17.1 17.1-17.1 17.1 7.6 17.1 17.1z"/>
        <path class="st4" d="M163.5 124.1h132.1c5.1 0 9.6-4.1 9.6-9.6s-4.1-9.6-9.6-9.6H163.5c-5.1 0-9.6 4.1-9.6 9.6s4.5 9.6 9.6 9.6zM163.5 175.8h74.3c5.1 0 9.6-4.1 9.6-9.6s-4.1-9.6-9.6-9.6h-74.3c-5.1 0-9.6 4.1-9.6 9.6s4.5 9.6 9.6 9.6zM163.5 283.3h74.3c5.1 0 9.6-4.1 9.6-9.6 0-5.1-4.1-9.6-9.6-9.6h-74.3c-5.1 0-9.6 4.1-9.6 9.6.4 5.1 4.5 9.6 9.6 9.6zM163.5 230.2h54.8c5.1 0 9.6-4.1 9.6-9.6s-4.1-9.6-9.6-9.6h-54.8c-5.1 0-9.6 4.1-9.6 9.6s4.5 9.6 9.6 9.6zM295.6 317.1H163.5c-5.1 0-9.6 4.1-9.6 9.6 0 5.1 4.1 9.6 9.6 9.6h132.1c5.1 0 9.6-4.1 9.6-9.6 0-5.1-4.1-9.6-9.6-9.6z"/>
        <path class="st3" d="M314.8 156.6c-35.2 0-64 28.8-64 64s28.8 64 64 64 64-28.8 64-64-28.8-64-64-64zm0 108.9c-24.6 0-44.8-20.2-44.8-44.8s20.2-44.8 44.8-44.8S360 196 360 220.6s-20.2 44.9-45.2 44.9z"/>
        <path class="st3" d="M334 212.1h-10.6v-17.5c0-4.8-3.8-8.6-8.6-8.6s-8.6 3.8-8.6 8.6v26c0 4.8 3.8 8.6 8.6 8.6H334c4.8 0 8.6-3.8 8.6-8.6s-3.8-8.5-8.6-8.5z"/>
        <path class="st4" d="M398.8 322.4v-8.1c0-3.4-3.5-5.3-6.3-3.7l-22.2 13.2c-2.8 1.6-2.8 5.6 0 7.2l22.2 13.4c2.8 1.8 6.3-.4 6.3-3.7v-7.8c36 1.2 64.7 30.7 64.7 66.8s-30.1 67-67 67-67-30.1-67-67c0-21.9 10.8-42.3 28.5-54.8 2.5-1.8 3-4.9 1.2-7.4s-4.9-3-7.4-1.2c-20.6 14.5-33.1 38.2-33.1 63.4 0 42.8 34.9 77.7 77.7 77.7s77.7-34.9 77.7-77.7-33.5-76.1-75.3-77.3z"/>
    </g>
</svg>
