<?xml version="1.0" encoding="UTF-8"?>
<svg xmlns="http://www.w3.org/2000/svg" style="display: none;">
<symbol id="users" viewBox="0 0 640 512">
<path class="fa-secondary" style="fill:var(--fa-secondary-color,inherit);opacity:var(--fa-secondary-opacity,.4);" d="M224 80A80 80 0 1 0 64 80a80 80 0 1 0 160 0zm368 0A80 80 0 1 0 432 80a80 80 0 1 0 160 0zM106.7 192C47.8 192 0 239.8 0 298.7C0 310.4 9.6 320 21.3 320H234.7c.2 0 .4 0 .7 0c-26.6-23.5-43.3-57.8-43.3-96c0-7.6 .7-15 1.9-22.3c-13.6-6.3-28.7-9.7-44.6-9.7H106.7zm298 128c.2 0 .4 0 .7 0H618.7c11.8 0 21.3-9.6 21.3-21.3C640 239.8 592.2 192 533.3 192H490.7c-15.9 0-31 3.5-44.6 9.7c1.3 7.2 1.9 14.7 1.9 22.3c0 38.2-16.8 72.5-43.3 96z"/><path class="fa-primary" style="fill:var(--fa-primary-color,inherit);opacity:var(--fa-primary-opacity,1);" d="M320 320a96 96 0 1 0 0-192 96 96 0 1 0 0 192zm-58.7 32C187.7 352 128 411.7 128 485.3c0 14.7 11.9 26.7 26.7 26.7H485.3c14.7 0 26.7-11.9 26.7-26.7C512 411.7 452.3 352 378.7 352H261.3z"/>
</symbol>
<symbol id="magnifying-glass" viewBox="0 0 512 512">
<path class="fa-secondary" style="fill:var(--fa-secondary-color,inherit);opacity:var(--fa-secondary-opacity,.4);" d="M208 64a144 144 0 1 1 0 288 144 144 0 1 1 0-288zm0 352A208 208 0 1 0 208 0a208 208 0 1 0 0 416z"/><path class="fa-primary" style="fill:var(--fa-primary-color,inherit);opacity:var(--fa-primary-opacity,1);" d="M330.7 376L457.4 502.6c12.5 12.5 32.8 12.5 45.3 0s12.5-32.8 0-45.3L376 330.7C363.3 348 348 363.3 330.7 376z"/>
</symbol>
<symbol id="calendar-plus" viewBox="0 0 448 512">
<path class="fa-secondary" style="fill:var(--fa-secondary-color,inherit);opacity:var(--fa-secondary-opacity,.4);" d="M0 192H448V464c0 26.5-21.5 48-48 48H48c-26.5 0-48-21.5-48-48V192zm224 56c-13.3 0-24 10.7-24 24v56H144c-13.3 0-24 10.7-24 24s10.7 24 24 24h56v56c0 13.3 10.7 24 24 24s24-10.7 24-24V376h56c13.3 0 24-10.7 24-24s-10.7-24-24-24H248V272c0-13.3-10.7-24-24-24z"/><path class="fa-primary" style="fill:var(--fa-primary-color,inherit);opacity:var(--fa-primary-opacity,1);" d="M96 32c0-17.7 14.3-32 32-32s32 14.3 32 32V64H288V32c0-17.7 14.3-32 32-32s32 14.3 32 32V64h48c26.5 0 48 21.5 48 48v80H0V112C0 85.5 21.5 64 48 64H96V32zM224 248c13.3 0 24 10.7 24 24v56h56c13.3 0 24 10.7 24 24s-10.7 24-24 24H248v56c0 13.3-10.7 24-24 24s-24-10.7-24-24V376H144c-13.3 0-24-10.7-24-24s10.7-24 24-24h56V272c0-13.3 10.7-24 24-24z"/>
</symbol>
<symbol id="earth-americas" viewBox="0 0 512 512">
<path class="fa-secondary" style="fill:var(--fa-secondary-color,inherit);opacity:var(--fa-secondary-opacity,.4);" d="M23.9 147.8L67 212.4c8.4 12.6 21.1 21.9 35.7 26L163 255.7c17.2 4.9 29 20.6 29 38.5v39.9c0 11 6.2 21 16 25.9s16 14.9 16 25.9v39c0 15.6 14.9 26.9 29.9 22.6c16.1-4.6 28.6-17.5 32.7-33.8l2.8-11.2c4.2-16.9 15.2-31.4 30.3-40l8.1-4.6c15-8.5 24.2-24.5 24.2-41.7v-8.3c0-12.7-5.1-24.9-14.1-33.9l-3.9-3.9c-9-9-21.2-14.1-33.9-14.1H257c-11.1 0-22.1-2.9-31.8-8.4l-34.5-19.7c-4.3-2.5-7.6-6.5-9.2-11.2c-3.2-9.6 1.1-20 10.2-24.5l5.9-3c6.6-3.3 14.3-3.9 21.3-1.5l23.2 7.7c8.2 2.7 17.2-.4 21.9-7.5c4.7-7 4.2-16.3-1.2-22.8l-13.6-16.3c-10-12-9.9-29.5 .3-41.3l16.1-18.8c8.6-10 10.2-24.3 3.9-36L241.4 .4c4.8-.3 9.7-.4 14.6-.4c97.3 0 182 54.3 225.3 134.3l-70.2 30.1c-15.3 6.6-23 23.7-17.8 39.5l17.6 52.9c3.2 9.6 10.7 17.1 20.2 20.2l76.6 25.5C485.9 421.7 381.5 512 256 512C114.6 512 0 397.4 0 256c0-38.6 8.6-75.3 23.9-108.2z"/><path class="fa-primary" style="fill:var(--fa-primary-color,inherit);opacity:var(--fa-primary-opacity,1);" d="M241.5 .4C145 5.8 62.7 64.7 23.9 147.8L67 212.4c8.4 12.6 21.1 21.9 35.7 26L163 255.7c17.2 4.9 29 20.6 29 38.5v39.9c0 11 6.2 21 16 25.9s16 14.9 16 25.9v39c0 15.6 14.9 26.9 29.9 22.6c16.1-4.6 28.6-17.5 32.7-33.8l2.8-11.2c4.2-16.9 15.2-31.4 30.3-40l8.1-4.6c15-8.5 24.2-24.5 24.2-41.7v-8.3c0-12.7-5.1-24.9-14.1-33.9l-3.9-3.9c-9-9-21.2-14.1-33.9-14.1H257c-11.1 0-22.1-2.9-31.8-8.4l-34.5-19.7c-4.3-2.5-7.6-6.5-9.2-11.2c-3.2-9.6 1.1-20 10.2-24.5l5.9-3c6.6-3.3 14.3-3.9 21.3-1.5l23.2 7.7c8.2 2.7 17.2-.4 21.9-7.5c4.7-7 4.2-16.3-1.2-22.8l-13.6-16.3c-10-12-9.9-29.5 .3-41.3l16.1-18.8c8.6-10 10.2-24.3 3.9-36L241.5 .4zM481.3 134.3l-70.2 30.1c-15.3 6.6-23 23.7-17.8 39.5l17.6 52.9c3.2 9.6 10.7 17.1 20.2 20.2l76.6 25.5c2.8-15.1 4.2-30.7 4.2-46.6c0-44-11.1-85.5-30.7-121.7z"/>
</symbol>
<symbol id="link" viewBox="0 0 640 512">
<path class="fa-secondary" style="fill:var(--fa-secondary-color,inherit);opacity:var(--fa-secondary-opacity,.4);" d="M579.8 63.2c56.5 56.5 56.5 148 0 204.5L467.5 380c-56.5 56.5-148 56.5-204.5 0c-50-50-56.5-128.8-15.4-186.3l1.1-1.6c10.3-14.4 30.3-17.7 44.6-7.4s17.7 30.3 7.4 44.6l-1.1 1.6c-22.9 32.1-19.3 76 8.6 103.8c31.5 31.5 82.5 31.5 114 0L534.5 222.5c31.5-31.5 31.5-82.5 0-114C506.7 80.6 462.7 77 430.7 99.9l-1.6 1.1c-14.4 10.3-34.4 6.9-44.6-7.4s-6.9-34.4 7.4-44.6l1.6-1.1C451 6.7 529.8 13.3 579.8 63.2z"/><path class="fa-primary" style="fill:var(--fa-primary-color,inherit);opacity:var(--fa-primary-opacity,1);" d="M60.2 448.8c-56.5-56.5-56.5-148 0-204.5L172.5 132c56.5-56.5 148-56.5 204.5 0c50 50 56.5 128.8 15.4 186.3l-1.1 1.6c-10.3 14.4-30.3 17.7-44.6 7.4s-17.7-30.3-7.4-44.6l1.1-1.6c22.9-32.1 19.3-76-8.6-103.9c-31.5-31.5-82.5-31.5-114 0L105.5 289.5C74 321 74 372 105.5 403.5c27.9 27.9 71.8 31.5 103.8 8.6l1.6-1.1c14.4-10.3 34.4-6.9 44.6 7.4s6.9 34.4-7.4 44.6l-1.6 1.1C189 505.3 110.2 498.7 60.2 448.8z"/>
</symbol>
</svg>