<?xml version="1.0" encoding="UTF-8"?>
<svg xmlns="http://www.w3.org/2000/svg" style="display: none;">
<symbol id="house" viewBox="0 0 576 512">
<path d="M272.5 5.7c9-7.6 22.1-7.6 31.1 0l264 224c10.1 8.6 11.4 23.7 2.8 33.8s-23.7 11.3-33.8 2.8L512 245.5V432c0 44.2-35.8 80-80 80H144c-44.2 0-80-35.8-80-80V245.5L39.5 266.3c-10.1 8.6-25.3 7.3-33.8-2.8s-7.3-25.3 2.8-33.8l264-224zM288 55.5L112 204.8V432c0 17.7 14.3 32 32 32h48V312c0-22.1 17.9-40 40-40H344c22.1 0 40 17.9 40 40V464h48c17.7 0 32-14.3 32-32V204.8L288 55.5zM240 464h96V320H240V464z"/>
</symbol>
<symbol id="circle-xmark" viewBox="0 0 512 512">
<path d="M256 48a208 208 0 1 1 0 416 208 208 0 1 1 0-416zm0 464A256 256 0 1 0 256 0a256 256 0 1 0 0 512zM175 175c-9.4 9.4-9.4 24.6 0 33.9l47 47-47 47c-9.4 9.4-9.4 24.6 0 33.9s24.6 9.4 33.9 0l47-47 47 47c9.4 9.4 24.6 9.4 33.9 0s9.4-24.6 0-33.9l-47-47 47-47c9.4-9.4 9.4-24.6 0-33.9s-24.6-9.4-33.9 0l-47 47-47-47c-9.4-9.4-24.6-9.4-33.9 0z"/>
</symbol>
<symbol id="angle-down" viewBox="0 0 448 512">
<path d="M241 369c-9.4 9.4-24.6 9.4-33.9 0L47 209c-9.4-9.4-9.4-24.6 0-33.9s24.6-9.4 33.9 0l143 143L367 175c9.4-9.4 24.6-9.4 33.9 0s9.4 24.6 0 33.9L241 369z"/>
</symbol>
<symbol id="magnifying-glass" viewBox="0 0 512 512">
<path d="M368 208A160 160 0 1 0 48 208a160 160 0 1 0 320 0zM337.1 371.1C301.7 399.2 256.8 416 208 416C93.1 416 0 322.9 0 208S93.1 0 208 0S416 93.1 416 208c0 48.8-16.8 93.7-44.9 129.1L505 471c9.4 9.4 9.4 24.6 0 33.9s-24.6 9.4-33.9 0L337.1 371.1z"/>
</symbol>
</svg>